<?xml version="1.0" encoding="UTF-8"?>
<svg version="1.1" xmlns="http://www.w3.org/2000/svg" width="182" height="240">
<path d="M0 0 C0.85098267 -0.00945648 1.70196533 -0.01891296 2.57873535 -0.02865601 C3.49441284 -0.02258331 4.41009033 -0.01651062 5.35351562 -0.01025391 C6.29658569 -0.01312408 7.23965576 -0.01599426 8.21130371 -0.01895142 C10.20516561 -0.02099287 12.1990475 -0.01545734 14.19287109 -0.00292969 C17.24817607 0.0131227 20.30215814 -0.00277574 23.35742188 -0.02197266 C25.29362272 -0.01999024 27.22982273 -0.0161466 29.16601562 -0.01025391 C30.53953186 -0.01936295 30.53953186 -0.01936295 31.9407959 -0.02865601 C32.79177856 -0.01919952 33.64276123 -0.00974304 34.51953125 0 C35.64180115 0.00358017 35.64180115 0.00358017 36.78674316 0.00723267 C39.35993309 0.50406385 40.23190306 1.27610235 41.75976562 3.38818359 C42.14071655 5.36120605 42.14071655 5.36120605 42.14794922 7.62841797 C42.1574057 8.47940063 42.16686218 9.3303833 42.17660522 10.20715332 C42.17053253 11.12283081 42.16445984 12.0385083 42.15820312 12.98193359 C42.1610733 13.92500366 42.16394348 14.86807373 42.16690063 15.83972168 C42.16894209 17.83358358 42.16340656 19.82746547 42.15087891 21.82128906 C42.13482652 24.87659404 42.15072495 27.93057611 42.16992188 30.98583984 C42.16793946 32.92204069 42.16409581 34.8582407 42.15820312 36.79443359 C42.16731216 38.16794983 42.16731216 38.16794983 42.17660522 39.56921387 C42.16714874 40.42019653 42.15769226 41.2711792 42.14794922 42.14794922 C42.14556244 42.89612915 42.14317566 43.64430908 42.14071655 44.41516113 C41.64388537 46.98835106 40.87184687 47.86032103 38.75976562 49.38818359 C36.78674316 49.76913452 36.78674316 49.76913452 34.51953125 49.77636719 C33.66854858 49.78582367 32.81756592 49.79528015 31.9407959 49.80502319 C31.02511841 49.7989505 30.10944092 49.79287781 29.16601562 49.78662109 C28.22294556 49.78949127 27.27987549 49.79236145 26.30822754 49.7953186 C24.31436564 49.79736006 22.32048375 49.79182452 20.32666016 49.77929688 C17.27135518 49.76324448 14.21737311 49.77914292 11.16210938 49.79833984 C9.22590853 49.79635743 7.28970852 49.79251378 5.35351562 49.78662109 C3.97999939 49.79573013 3.97999939 49.79573013 2.57873535 49.80502319 C1.30226135 49.79083847 1.30226135 49.79083847 0 49.77636719 C-1.1222699 49.77278702 -1.1222699 49.77278702 -2.26721191 49.76913452 C-4.84040184 49.27230333 -5.71237181 48.50026484 -7.24023438 46.38818359 C-7.6211853 44.41516113 -7.6211853 44.41516113 -7.62841797 42.14794922 C-7.63787445 41.29696655 -7.64733093 40.44598389 -7.65707397 39.56921387 C-7.65100128 38.65353638 -7.64492859 37.73785889 -7.63867188 36.79443359 C-7.64154205 35.85136353 -7.64441223 34.90829346 -7.64736938 33.93664551 C-7.64941084 31.94278361 -7.64387531 29.94890172 -7.63134766 27.95507812 C-7.61529527 24.89977315 -7.6311937 21.84579108 -7.65039062 18.79052734 C-7.64840821 16.8543265 -7.64456456 14.91812648 -7.63867188 12.98193359 C-7.64474457 12.0662561 -7.65081726 11.15057861 -7.65707397 10.20715332 C-7.64761749 9.35617065 -7.63816101 8.50518799 -7.62841797 7.62841797 C-7.62603119 6.88023804 -7.62364441 6.13205811 -7.6211853 5.36120605 C-6.78020975 1.00562233 -4.11239795 0.01311902 0 0 Z " fill="#2E9E40" transform="translate(131.240234375,123.61181640625)"/>
<path d="M0 0 C0.85098267 -0.00945648 1.70196533 -0.01891296 2.57873535 -0.02865601 C3.49441284 -0.02258331 4.41009033 -0.01651062 5.35351562 -0.01025391 C6.29658569 -0.01312408 7.23965576 -0.01599426 8.21130371 -0.01895142 C10.20516561 -0.02099287 12.1990475 -0.01545734 14.19287109 -0.00292969 C17.24817607 0.0131227 20.30215814 -0.00277574 23.35742188 -0.02197266 C25.29362272 -0.01999024 27.22982273 -0.0161466 29.16601562 -0.01025391 C30.53953186 -0.01936295 30.53953186 -0.01936295 31.9407959 -0.02865601 C32.79177856 -0.01919952 33.64276123 -0.00974304 34.51953125 0 C35.64180115 0.00358017 35.64180115 0.00358017 36.78674316 0.00723267 C39.35993309 0.50406385 40.23190306 1.27610235 41.75976562 3.38818359 C42.14071655 5.36120605 42.14071655 5.36120605 42.14794922 7.62841797 C42.1574057 8.47940063 42.16686218 9.3303833 42.17660522 10.20715332 C42.17053253 11.12283081 42.16445984 12.0385083 42.15820312 12.98193359 C42.1610733 13.92500366 42.16394348 14.86807373 42.16690063 15.83972168 C42.16894209 17.83358358 42.16340656 19.82746547 42.15087891 21.82128906 C42.13482652 24.87659404 42.15072495 27.93057611 42.16992188 30.98583984 C42.16793946 32.92204069 42.16409581 34.8582407 42.15820312 36.79443359 C42.16731216 38.16794983 42.16731216 38.16794983 42.17660522 39.56921387 C42.16714874 40.42019653 42.15769226 41.2711792 42.14794922 42.14794922 C42.14556244 42.89612915 42.14317566 43.64430908 42.14071655 44.41516113 C41.64388537 46.98835106 40.87184687 47.86032103 38.75976562 49.38818359 C36.78674316 49.76913452 36.78674316 49.76913452 34.51953125 49.77636719 C33.66854858 49.78582367 32.81756592 49.79528015 31.9407959 49.80502319 C31.02511841 49.7989505 30.10944092 49.79287781 29.16601562 49.78662109 C28.22294556 49.78949127 27.27987549 49.79236145 26.30822754 49.7953186 C24.31436564 49.79736006 22.32048375 49.79182452 20.32666016 49.77929688 C17.27135518 49.76324448 14.21737311 49.77914292 11.16210938 49.79833984 C9.22590853 49.79635743 7.28970852 49.79251378 5.35351562 49.78662109 C3.97999939 49.79573013 3.97999939 49.79573013 2.57873535 49.80502319 C1.30226135 49.79083847 1.30226135 49.79083847 0 49.77636719 C-1.1222699 49.77278702 -1.1222699 49.77278702 -2.26721191 49.76913452 C-4.84040184 49.27230333 -5.71237181 48.50026484 -7.24023438 46.38818359 C-7.6211853 44.41516113 -7.6211853 44.41516113 -7.62841797 42.14794922 C-7.63787445 41.29696655 -7.64733093 40.44598389 -7.65707397 39.56921387 C-7.65100128 38.65353638 -7.64492859 37.73785889 -7.63867188 36.79443359 C-7.64154205 35.85136353 -7.64441223 34.90829346 -7.64736938 33.93664551 C-7.64941084 31.94278361 -7.64387531 29.94890172 -7.63134766 27.95507812 C-7.61529527 24.89977315 -7.6311937 21.84579108 -7.65039062 18.79052734 C-7.64840821 16.8543265 -7.64456456 14.91812648 -7.63867188 12.98193359 C-7.64474457 12.0662561 -7.65081726 11.15057861 -7.65707397 10.20715332 C-7.64761749 9.35617065 -7.63816101 8.50518799 -7.62841797 7.62841797 C-7.62603119 6.88023804 -7.62364441 6.13205811 -7.6211853 5.36120605 C-6.78020975 1.00562233 -4.11239795 0.01311902 0 0 Z " fill="#2E9E40" transform="translate(16.240234375,123.61181640625)"/>
<path d="M0 0 C0.85098267 -0.00945648 1.70196533 -0.01891296 2.57873535 -0.02865601 C3.49441284 -0.02258331 4.41009033 -0.01651062 5.35351562 -0.01025391 C6.29658569 -0.01312408 7.23965576 -0.01599426 8.21130371 -0.01895142 C10.20516561 -0.02099287 12.1990475 -0.01545734 14.19287109 -0.00292969 C17.24817607 0.0131227 20.30215814 -0.00277574 23.35742188 -0.02197266 C25.29362272 -0.01999024 27.22982273 -0.0161466 29.16601562 -0.01025391 C30.53953186 -0.01936295 30.53953186 -0.01936295 31.9407959 -0.02865601 C32.79177856 -0.01919952 33.64276123 -0.00974304 34.51953125 0 C35.64180115 0.00358017 35.64180115 0.00358017 36.78674316 0.00723267 C39.35993309 0.50406385 40.23190306 1.27610235 41.75976562 3.38818359 C42.14071655 5.36120605 42.14071655 5.36120605 42.14794922 7.62841797 C42.1574057 8.47940063 42.16686218 9.3303833 42.17660522 10.20715332 C42.17053253 11.12283081 42.16445984 12.0385083 42.15820312 12.98193359 C42.1610733 13.92500366 42.16394348 14.86807373 42.16690063 15.83972168 C42.16894209 17.83358358 42.16340656 19.82746547 42.15087891 21.82128906 C42.13482652 24.87659404 42.15072495 27.93057611 42.16992188 30.98583984 C42.16793946 32.92204069 42.16409581 34.8582407 42.15820312 36.79443359 C42.16731216 38.16794983 42.16731216 38.16794983 42.17660522 39.56921387 C42.16714874 40.42019653 42.15769226 41.2711792 42.14794922 42.14794922 C42.14556244 42.89612915 42.14317566 43.64430908 42.14071655 44.41516113 C41.64388537 46.98835106 40.87184687 47.86032103 38.75976562 49.38818359 C36.78674316 49.76913452 36.78674316 49.76913452 34.51953125 49.77636719 C33.66854858 49.78582367 32.81756592 49.79528015 31.9407959 49.80502319 C31.02511841 49.7989505 30.10944092 49.79287781 29.16601562 49.78662109 C28.22294556 49.78949127 27.27987549 49.79236145 26.30822754 49.7953186 C24.31436564 49.79736006 22.32048375 49.79182452 20.32666016 49.77929688 C17.27135518 49.76324448 14.21737311 49.77914292 11.16210938 49.79833984 C9.22590853 49.79635743 7.28970852 49.79251378 5.35351562 49.78662109 C3.97999939 49.79573013 3.97999939 49.79573013 2.57873535 49.80502319 C1.30226135 49.79083847 1.30226135 49.79083847 0 49.77636719 C-1.1222699 49.77278702 -1.1222699 49.77278702 -2.26721191 49.76913452 C-4.84040184 49.27230333 -5.71237181 48.50026484 -7.24023438 46.38818359 C-7.6211853 44.41516113 -7.6211853 44.41516113 -7.62841797 42.14794922 C-7.63787445 41.29696655 -7.64733093 40.44598389 -7.65707397 39.56921387 C-7.65100128 38.65353638 -7.64492859 37.73785889 -7.63867188 36.79443359 C-7.64154205 35.85136353 -7.64441223 34.90829346 -7.64736938 33.93664551 C-7.64941084 31.94278361 -7.64387531 29.94890172 -7.63134766 27.95507812 C-7.61529527 24.89977315 -7.6311937 21.84579108 -7.65039062 18.79052734 C-7.64840821 16.8543265 -7.64456456 14.91812648 -7.63867188 12.98193359 C-7.64474457 12.0662561 -7.65081726 11.15057861 -7.65707397 10.20715332 C-7.64761749 9.35617065 -7.63816101 8.50518799 -7.62841797 7.62841797 C-7.62603119 6.88023804 -7.62364441 6.13205811 -7.6211853 5.36120605 C-6.78020975 1.00562233 -4.11239795 0.01311902 0 0 Z " fill="#2E9E40" transform="translate(131.240234375,8.61181640625)"/>
<path d="M0 0 C0.87430664 -0.00630432 1.74861328 -0.01260864 2.64941406 -0.019104 C4.06818848 -0.01303131 4.06818848 -0.01303131 5.515625 -0.00683594 C6.48467773 -0.00874939 7.45373047 -0.01066284 8.45214844 -0.01263428 C10.50325785 -0.01399673 12.55437586 -0.01029612 14.60546875 -0.00195312 C17.75280039 0.00874547 20.8995612 -0.00184647 24.046875 -0.01464844 C26.0364596 -0.01332685 28.02604384 -0.01076448 30.015625 -0.00683594 C30.96147461 -0.0108844 31.90732422 -0.01493286 32.88183594 -0.019104 C33.75614258 -0.01279968 34.63044922 -0.00649536 35.53125 0 C36.68802246 0.00238678 36.68802246 0.00238678 37.86816406 0.00482178 C39.765625 0.25878906 39.765625 0.25878906 41.765625 2.25878906 C42.01959229 4.19421387 42.01959229 4.19421387 42.02441406 6.58496094 C42.03071838 7.47928833 42.03702271 8.37361572 42.04351807 9.29504395 C42.0394696 10.26276733 42.03542114 11.23049072 42.03125 12.22753906 C42.03412018 13.71441223 42.03412018 13.71441223 42.03704834 15.23132324 C42.03841085 17.32951104 42.03470982 19.42770725 42.02636719 21.52587891 C42.01566871 24.74563452 42.02626036 27.96483214 42.0390625 31.18457031 C42.03774092 33.2197278 42.03517855 35.25488494 42.03125 37.29003906 C42.03529846 38.25776245 42.03934692 39.22548584 42.04351807 40.22253418 C42.03721375 41.11686157 42.03090942 42.01118896 42.02441406 42.93261719 C42.02282288 43.72156372 42.02123169 44.51051025 42.01959229 45.32336426 C41.765625 47.25878906 41.765625 47.25878906 39.765625 49.25878906 C37.86816406 49.51275635 37.86816406 49.51275635 35.53125 49.51757812 C34.65694336 49.52388245 33.78263672 49.53018677 32.88183594 49.53668213 C31.46306152 49.53060944 31.46306152 49.53060944 30.015625 49.52441406 C29.04657227 49.52632751 28.07751953 49.52824097 27.07910156 49.5302124 C25.02799215 49.53157485 22.97687414 49.52787424 20.92578125 49.51953125 C17.77844961 49.50883266 14.6316888 49.5194246 11.484375 49.53222656 C9.4947904 49.53090498 7.50520616 49.52834261 5.515625 49.52441406 C4.09685059 49.53048676 4.09685059 49.53048676 2.64941406 49.53668213 C1.77510742 49.53037781 0.90080078 49.52407349 0 49.51757812 C-0.77118164 49.51598694 -1.54236328 49.51439575 -2.33691406 49.51275635 C-4.234375 49.25878906 -4.234375 49.25878906 -6.234375 47.25878906 C-6.48834229 45.32336426 -6.48834229 45.32336426 -6.49316406 42.93261719 C-6.49946838 42.03828979 -6.50577271 41.1439624 -6.51226807 40.22253418 C-6.5082196 39.25481079 -6.50417114 38.2870874 -6.5 37.29003906 C-6.50191345 36.29879028 -6.5038269 35.3075415 -6.50579834 34.28625488 C-6.50716085 32.18806708 -6.50345982 30.08987088 -6.49511719 27.99169922 C-6.48441871 24.7719436 -6.49501036 21.55274598 -6.5078125 18.33300781 C-6.50649092 16.29785033 -6.50392855 14.26269319 -6.5 12.22753906 C-6.50607269 10.77595398 -6.50607269 10.77595398 -6.51226807 9.29504395 C-6.50596375 8.40071655 -6.49965942 7.50638916 -6.49316406 6.58496094 C-6.49157288 5.7960144 -6.48998169 5.00706787 -6.48834229 4.19421387 C-5.95478777 0.12812067 -3.50953483 0.00724126 0 0 Z " fill="#2F9E40" transform="translate(73.234375,123.7412109375)"/>
<path d="M0 0 C0.89432739 -0.00630432 1.78865479 -0.01260864 2.71008301 -0.019104 C4.16166809 -0.01303131 4.16166809 -0.01303131 5.64257812 -0.00683594 C6.6338269 -0.00874939 7.62507568 -0.01066284 8.6463623 -0.01263428 C10.7445501 -0.01399679 12.84274631 -0.01029576 14.94091797 -0.00195312 C18.16067358 0.00874535 21.37987121 -0.0018463 24.59960938 -0.01464844 C26.63476686 -0.01332685 28.669924 -0.01076449 30.70507812 -0.00683594 C31.67280151 -0.0108844 32.6405249 -0.01493286 33.63757324 -0.019104 C34.53190063 -0.01279968 35.42622803 -0.00649536 36.34765625 0 C37.13660278 0.00159119 37.92554932 0.00318237 38.73840332 0.00482178 C40.67382812 0.25878906 40.67382812 0.25878906 42.67382812 2.25878906 C42.92779541 4.15625 42.92779541 4.15625 42.93261719 6.49316406 C42.93892151 7.3674707 42.94522583 8.24177734 42.95172119 9.14257812 C42.94767273 10.08842773 42.94362427 11.03427734 42.93945312 12.00878906 C42.9423233 13.46236816 42.9423233 13.46236816 42.94525146 14.9453125 C42.94661392 16.99642191 42.94291331 19.04753992 42.93457031 21.09863281 C42.92387172 24.24596445 42.93446366 27.39272526 42.94726562 30.54003906 C42.94594404 32.52962366 42.94338167 34.5192079 42.93945312 36.50878906 C42.94350159 37.45463867 42.94755005 38.40048828 42.95172119 39.375 C42.94541687 40.24930664 42.93911255 41.12361328 42.93261719 42.02441406 C42.931026 42.7955957 42.92943481 43.56677734 42.92779541 44.36132812 C42.67382812 46.25878906 42.67382812 46.25878906 40.67382812 48.25878906 C38.73840332 48.51275635 38.73840332 48.51275635 36.34765625 48.51757812 C35.45332886 48.52388245 34.55900146 48.53018677 33.63757324 48.53668213 C32.66984985 48.53263367 31.70212646 48.52858521 30.70507812 48.52441406 C29.21820496 48.52728424 29.21820496 48.52728424 27.70129395 48.5302124 C25.60310615 48.53157492 23.50490994 48.52787388 21.40673828 48.51953125 C18.18698267 48.50883277 14.96778504 48.51942442 11.74804688 48.53222656 C9.71288939 48.53090498 7.67773225 48.52834261 5.64257812 48.52441406 C4.19099304 48.53048676 4.19099304 48.53048676 2.71008301 48.53668213 C1.81575562 48.53037781 0.92142822 48.52407349 0 48.51757812 C-0.78894653 48.51598694 -1.57789307 48.51439575 -2.39074707 48.51275635 C-4.32617187 48.25878906 -4.32617187 48.25878906 -6.32617188 46.25878906 C-6.58013916 44.36132812 -6.58013916 44.36132812 -6.58496094 42.02441406 C-6.59126526 41.15010742 -6.59756958 40.27580078 -6.60406494 39.375 C-6.60001648 38.42915039 -6.59596802 37.48330078 -6.59179688 36.50878906 C-6.59371033 35.53973633 -6.59562378 34.57068359 -6.59759521 33.57226562 C-6.59895767 31.52115622 -6.59525706 29.47003821 -6.58691406 27.41894531 C-6.57621547 24.27161367 -6.58680741 21.12485286 -6.59960938 17.97753906 C-6.59828779 15.98795446 -6.59572542 13.99837022 -6.59179688 12.00878906 C-6.59584534 11.06293945 -6.5998938 10.11708984 -6.60406494 9.14257812 C-6.59776062 8.26827148 -6.5914563 7.39396484 -6.58496094 6.49316406 C-6.58336975 5.72198242 -6.58177856 4.95080078 -6.58013916 4.15625 C-6.03305603 0.06883822 -3.50738566 0.00707387 0 0 Z " fill="#2E9E40" transform="translate(15.326171875,66.7412109375)"/>
<path d="M0 0 C0.87430664 -0.00630432 1.74861328 -0.01260864 2.64941406 -0.019104 C4.06818848 -0.01303131 4.06818848 -0.01303131 5.515625 -0.00683594 C6.48467773 -0.00874939 7.45373047 -0.01066284 8.45214844 -0.01263428 C10.50325785 -0.01399673 12.55437586 -0.01029612 14.60546875 -0.00195312 C17.75280039 0.00874547 20.8995612 -0.00184647 24.046875 -0.01464844 C26.0364596 -0.01332685 28.02604384 -0.01076448 30.015625 -0.00683594 C30.96147461 -0.0108844 31.90732422 -0.01493286 32.88183594 -0.019104 C33.75614258 -0.01279968 34.63044922 -0.00649536 35.53125 0 C36.68802246 0.00238678 36.68802246 0.00238678 37.86816406 0.00482178 C39.765625 0.25878906 39.765625 0.25878906 41.765625 2.25878906 C42.01959229 4.19421387 42.01959229 4.19421387 42.02441406 6.58496094 C42.03071838 7.47928833 42.03702271 8.37361572 42.04351807 9.29504395 C42.0394696 10.26276733 42.03542114 11.23049072 42.03125 12.22753906 C42.03412018 13.71441223 42.03412018 13.71441223 42.03704834 15.23132324 C42.03841085 17.32951104 42.03470982 19.42770725 42.02636719 21.52587891 C42.01566871 24.74563452 42.02626036 27.96483214 42.0390625 31.18457031 C42.03774092 33.2197278 42.03517855 35.25488494 42.03125 37.29003906 C42.03529846 38.25776245 42.03934692 39.22548584 42.04351807 40.22253418 C42.03721375 41.11686157 42.03090942 42.01118896 42.02441406 42.93261719 C42.02282288 43.72156372 42.02123169 44.51051025 42.01959229 45.32336426 C41.765625 47.25878906 41.765625 47.25878906 39.765625 49.25878906 C37.86816406 49.51275635 37.86816406 49.51275635 35.53125 49.51757812 C34.65694336 49.52388245 33.78263672 49.53018677 32.88183594 49.53668213 C31.46306152 49.53060944 31.46306152 49.53060944 30.015625 49.52441406 C29.04657227 49.52632751 28.07751953 49.52824097 27.07910156 49.5302124 C25.02799215 49.53157485 22.97687414 49.52787424 20.92578125 49.51953125 C17.77844961 49.50883266 14.6316888 49.5194246 11.484375 49.53222656 C9.4947904 49.53090498 7.50520616 49.52834261 5.515625 49.52441406 C4.09685059 49.53048676 4.09685059 49.53048676 2.64941406 49.53668213 C1.77510742 49.53037781 0.90080078 49.52407349 0 49.51757812 C-0.77118164 49.51598694 -1.54236328 49.51439575 -2.33691406 49.51275635 C-4.234375 49.25878906 -4.234375 49.25878906 -6.234375 47.25878906 C-6.48834229 45.32336426 -6.48834229 45.32336426 -6.49316406 42.93261719 C-6.49946838 42.03828979 -6.50577271 41.1439624 -6.51226807 40.22253418 C-6.5082196 39.25481079 -6.50417114 38.2870874 -6.5 37.29003906 C-6.50191345 36.29879028 -6.5038269 35.3075415 -6.50579834 34.28625488 C-6.50716085 32.18806708 -6.50345982 30.08987088 -6.49511719 27.99169922 C-6.48441871 24.7719436 -6.49501036 21.55274598 -6.5078125 18.33300781 C-6.50649092 16.29785033 -6.50392855 14.26269319 -6.5 12.22753906 C-6.50607269 10.77595398 -6.50607269 10.77595398 -6.51226807 9.29504395 C-6.50596375 8.40071655 -6.49965942 7.50638916 -6.49316406 6.58496094 C-6.49157288 5.7960144 -6.48998169 5.00706787 -6.48834229 4.19421387 C-5.95478777 0.12812067 -3.50953483 0.00724126 0 0 Z " fill="#2E9E40" transform="translate(73.234375,8.7412109375)"/>
<path d="M0 0 C0.89432739 -0.00630432 1.78865479 -0.01260864 2.71008301 -0.019104 C4.16166809 -0.01303131 4.16166809 -0.01303131 5.64257812 -0.00683594 C6.6338269 -0.00874939 7.62507568 -0.01066284 8.6463623 -0.01263428 C10.7445501 -0.01399679 12.84274631 -0.01029576 14.94091797 -0.00195312 C18.16067358 0.00874535 21.37987121 -0.0018463 24.59960938 -0.01464844 C26.63476686 -0.01332685 28.669924 -0.01076449 30.70507812 -0.00683594 C31.67280151 -0.0108844 32.6405249 -0.01493286 33.63757324 -0.019104 C34.53190063 -0.01279968 35.42622803 -0.00649536 36.34765625 0 C37.13660278 0.00159119 37.92554932 0.00318237 38.73840332 0.00482178 C40.67382812 0.25878906 40.67382812 0.25878906 42.67382812 2.25878906 C42.92779541 4.15625 42.92779541 4.15625 42.93261719 6.49316406 C42.93892151 7.3674707 42.94522583 8.24177734 42.95172119 9.14257812 C42.94767273 10.08842773 42.94362427 11.03427734 42.93945312 12.00878906 C42.9423233 13.46236816 42.9423233 13.46236816 42.94525146 14.9453125 C42.94661392 16.99642191 42.94291331 19.04753992 42.93457031 21.09863281 C42.92387172 24.24596445 42.93446366 27.39272526 42.94726562 30.54003906 C42.94594404 32.52962366 42.94338167 34.5192079 42.93945312 36.50878906 C42.94350159 37.45463867 42.94755005 38.40048828 42.95172119 39.375 C42.94541687 40.24930664 42.93911255 41.12361328 42.93261719 42.02441406 C42.931026 42.7955957 42.92943481 43.56677734 42.92779541 44.36132812 C42.67382812 46.25878906 42.67382812 46.25878906 40.67382812 48.25878906 C38.73840332 48.51948547 38.73840332 48.51948547 36.34765625 48.53344727 C35.00616516 48.54774529 35.00616516 48.54774529 33.63757324 48.56233215 C32.18598816 48.56096504 32.18598816 48.56096504 30.70507812 48.55957031 C29.21820496 48.565998 29.21820496 48.565998 27.70129395 48.57255554 C25.6031165 48.57830491 23.50491913 48.57879466 21.40673828 48.57446289 C18.18683082 48.57130183 14.9678407 48.59475866 11.74804688 48.62011719 C9.71289179 48.62238991 7.67773422 48.6230938 5.64257812 48.62207031 C4.67485474 48.63128006 3.70713135 48.64048981 2.71008301 48.64997864 C1.81575562 48.64374985 0.92142822 48.63752106 0 48.63110352 C-0.78894653 48.63173294 -1.57789307 48.63236237 -2.39074707 48.63301086 C-3.02943726 48.50951767 -3.66812744 48.38602448 -4.32617188 48.25878906 C-6.388878 45.16472987 -6.57754522 44.50363082 -6.58496094 41.00268555 C-6.59126526 40.14847519 -6.59756958 39.29426483 -6.60406494 38.41416931 C-6.60001648 37.49535477 -6.59596802 36.57654022 -6.59179688 35.62988281 C-6.59466705 34.2117202 -6.59466705 34.2117202 -6.59759521 32.76490784 C-6.59895606 30.76685317 -6.59526666 28.76878963 -6.58691406 26.77075195 C-6.57620131 23.70471453 -6.58681892 20.63926148 -6.59960938 17.57324219 C-6.598288 15.63378776 -6.59572605 13.69433371 -6.59179688 11.75488281 C-6.59786957 10.37362465 -6.59786957 10.37362465 -6.60406494 8.96446228 C-6.59776062 8.11340408 -6.5914563 7.26234589 -6.58496094 6.38549805 C-6.58336975 5.6350975 -6.58177856 4.88469696 -6.58013916 4.11155701 C-6.02378821 0.052809 -3.47301593 0.00700455 0 0 Z " fill="#2E9E41" transform="translate(15.326171875,181.7412109375)"/>
<path d="M0 0 C0.87430664 -0.00630432 1.74861328 -0.01260864 2.64941406 -0.019104 C4.06818848 -0.01303131 4.06818848 -0.01303131 5.515625 -0.00683594 C6.48467773 -0.00874939 7.45373047 -0.01066284 8.45214844 -0.01263428 C10.50325785 -0.01399673 12.55437586 -0.01029612 14.60546875 -0.00195312 C17.75280039 0.00874547 20.8995612 -0.00184647 24.046875 -0.01464844 C26.0364596 -0.01332685 28.02604384 -0.01076448 30.015625 -0.00683594 C30.96147461 -0.0108844 31.90732422 -0.01493286 32.88183594 -0.019104 C33.75614258 -0.01279968 34.63044922 -0.00649536 35.53125 0 C36.68802246 0.00238678 36.68802246 0.00238678 37.86816406 0.00482178 C39.765625 0.25878906 39.765625 0.25878906 41.765625 2.25878906 C42.01959229 4.15625 42.01959229 4.15625 42.02441406 6.49316406 C42.03071838 7.3674707 42.03702271 8.24177734 42.04351807 9.14257812 C42.0394696 10.08842773 42.03542114 11.03427734 42.03125 12.00878906 C42.03412018 13.46236816 42.03412018 13.46236816 42.03704834 14.9453125 C42.03841079 16.99642191 42.03471018 19.04753992 42.02636719 21.09863281 C42.01566859 24.24596445 42.02626054 27.39272526 42.0390625 30.54003906 C42.03774092 32.52962366 42.03517855 34.5192079 42.03125 36.50878906 C42.03529846 37.45463867 42.03934692 38.40048828 42.04351807 39.375 C42.03721375 40.24930664 42.03090942 41.12361328 42.02441406 42.02441406 C42.02282288 42.7955957 42.02123169 43.56677734 42.01959229 44.36132812 C41.765625 46.25878906 41.765625 46.25878906 39.765625 48.25878906 C37.86816406 48.51275635 37.86816406 48.51275635 35.53125 48.51757812 C34.65694336 48.52388245 33.78263672 48.53018677 32.88183594 48.53668213 C31.46306152 48.53060944 31.46306152 48.53060944 30.015625 48.52441406 C29.04657227 48.52632751 28.07751953 48.52824097 27.07910156 48.5302124 C25.02799215 48.53157485 22.97687414 48.52787424 20.92578125 48.51953125 C17.77844961 48.50883266 14.6316888 48.5194246 11.484375 48.53222656 C9.4947904 48.53090498 7.50520616 48.52834261 5.515625 48.52441406 C4.09685059 48.53048676 4.09685059 48.53048676 2.64941406 48.53668213 C1.77510742 48.53037781 0.90080078 48.52407349 0 48.51757812 C-0.77118164 48.51598694 -1.54236328 48.51439575 -2.33691406 48.51275635 C-4.234375 48.25878906 -4.234375 48.25878906 -6.234375 46.25878906 C-6.48834229 44.36132812 -6.48834229 44.36132812 -6.49316406 42.02441406 C-6.49946838 41.15010742 -6.50577271 40.27580078 -6.51226807 39.375 C-6.5082196 38.42915039 -6.50417114 37.48330078 -6.5 36.50878906 C-6.50191345 35.53973633 -6.5038269 34.57068359 -6.50579834 33.57226562 C-6.50716079 31.52115622 -6.50346018 29.47003821 -6.49511719 27.41894531 C-6.48441859 24.27161367 -6.49501054 21.12485286 -6.5078125 17.97753906 C-6.50649092 15.98795446 -6.50392855 13.99837022 -6.5 12.00878906 C-6.50404846 11.06293945 -6.50809692 10.11708984 -6.51226807 9.14257812 C-6.50596375 8.26827148 -6.49965942 7.39396484 -6.49316406 6.49316406 C-6.49157288 5.72198242 -6.48998169 4.95080078 -6.48834229 4.15625 C-5.94732352 0.11414679 -3.48046094 0.00718127 0 0 Z " fill="#2F9E40" transform="translate(73.234375,181.7412109375)"/>
<path d="M0 0 C0.87430664 -0.00630432 1.74861328 -0.01260864 2.64941406 -0.019104 C4.06818848 -0.01303131 4.06818848 -0.01303131 5.515625 -0.00683594 C6.48467773 -0.00874939 7.45373047 -0.01066284 8.45214844 -0.01263428 C10.50325785 -0.01399673 12.55437586 -0.01029612 14.60546875 -0.00195312 C17.75280039 0.00874547 20.8995612 -0.00184647 24.046875 -0.01464844 C26.0364596 -0.01332685 28.02604384 -0.01076448 30.015625 -0.00683594 C30.96147461 -0.0108844 31.90732422 -0.01493286 32.88183594 -0.019104 C33.75614258 -0.01279968 34.63044922 -0.00649536 35.53125 0 C36.68802246 0.00238678 36.68802246 0.00238678 37.86816406 0.00482178 C39.765625 0.25878906 39.765625 0.25878906 41.765625 2.25878906 C42.01959229 4.15625 42.01959229 4.15625 42.02441406 6.49316406 C42.03071838 7.3674707 42.03702271 8.24177734 42.04351807 9.14257812 C42.0394696 10.08842773 42.03542114 11.03427734 42.03125 12.00878906 C42.03412018 13.46236816 42.03412018 13.46236816 42.03704834 14.9453125 C42.03841079 16.99642191 42.03471018 19.04753992 42.02636719 21.09863281 C42.01566859 24.24596445 42.02626054 27.39272526 42.0390625 30.54003906 C42.03774092 32.52962366 42.03517855 34.5192079 42.03125 36.50878906 C42.03529846 37.45463867 42.03934692 38.40048828 42.04351807 39.375 C42.03721375 40.24930664 42.03090942 41.12361328 42.02441406 42.02441406 C42.02282288 42.7955957 42.02123169 43.56677734 42.01959229 44.36132812 C41.765625 46.25878906 41.765625 46.25878906 39.765625 48.25878906 C37.86816406 48.51275635 37.86816406 48.51275635 35.53125 48.51757812 C34.65694336 48.52388245 33.78263672 48.53018677 32.88183594 48.53668213 C31.46306152 48.53060944 31.46306152 48.53060944 30.015625 48.52441406 C29.04657227 48.52632751 28.07751953 48.52824097 27.07910156 48.5302124 C25.02799215 48.53157485 22.97687414 48.52787424 20.92578125 48.51953125 C17.77844961 48.50883266 14.6316888 48.5194246 11.484375 48.53222656 C9.4947904 48.53090498 7.50520616 48.52834261 5.515625 48.52441406 C4.09685059 48.53048676 4.09685059 48.53048676 2.64941406 48.53668213 C1.77510742 48.53037781 0.90080078 48.52407349 0 48.51757812 C-0.77118164 48.51598694 -1.54236328 48.51439575 -2.33691406 48.51275635 C-4.234375 48.25878906 -4.234375 48.25878906 -6.234375 46.25878906 C-6.48834229 44.36132812 -6.48834229 44.36132812 -6.49316406 42.02441406 C-6.49946838 41.15010742 -6.50577271 40.27580078 -6.51226807 39.375 C-6.5082196 38.42915039 -6.50417114 37.48330078 -6.5 36.50878906 C-6.50191345 35.53973633 -6.5038269 34.57068359 -6.50579834 33.57226562 C-6.50716079 31.52115622 -6.50346018 29.47003821 -6.49511719 27.41894531 C-6.48441859 24.27161367 -6.49501054 21.12485286 -6.5078125 17.97753906 C-6.50649092 15.98795446 -6.50392855 13.99837022 -6.5 12.00878906 C-6.50404846 11.06293945 -6.50809692 10.11708984 -6.51226807 9.14257812 C-6.50596375 8.26827148 -6.49965942 7.39396484 -6.49316406 6.49316406 C-6.49157288 5.72198242 -6.48998169 4.95080078 -6.48834229 4.15625 C-5.94732352 0.11414679 -3.48046094 0.00718127 0 0 Z " fill="#2E9E40" transform="translate(73.234375,66.7412109375)"/>
<path d="M0 0 C5.9303316 3.58809979 10.24166323 8.3123075 12.484375 14.984375 C14.02489646 23.77818501 13.64813415 32.54519107 8.5703125 40.0234375 C4.45570181 45.23821147 -0.49980141 48.86348154 -7.140625 50.125 C-16.55485134 50.77253938 -23.55316692 50.38915286 -31.390625 44.8125 C-37.59641474 38.74775093 -40.40983344 32.47682846 -40.515625 23.8125 C-40.38475723 15.61456897 -37.90640498 9.06036175 -32.140625 3.125 C-22.73616951 -4.03056396 -10.61544954 -5.57892239 0 0 Z " fill="#CD181D" transform="translate(47.140625,9.875)"/>
</svg>
